<svg width="1601" height="294" viewBox="0 0 1601 294" fill="none" xmlns="http://www.w3.org/2000/svg">
<path fill-rule="evenodd" clip-rule="evenodd" d="M790.883 0.0856956C782.57 -0.322002 772.283 0.715641 759.981 3.39974C661.695 24.8451 606.511 88.9642 603.611 151.834C603.182 161.12 603.896 170.371 605.779 179.444C464.693 234.901 257.652 270.098 0.353394 221.259L0 223.121C257.474 271.993 464.771 236.843 606.186 181.32C610.921 202.277 621.938 222.225 639.569 239.382C665.326 264.449 705.157 283.521 760.052 291.166C865.71 305.879 936.612 241.286 995.703 187.453C998.137 185.236 1000.55 183.037 1002.95 180.862C1018.1 167.102 1032.52 154.328 1046.61 144.084C1060.71 133.838 1074.44 126.162 1088.22 122.556C1101.98 118.956 1115.82 119.403 1130.18 125.447C1144.56 131.499 1159.52 143.189 1175.46 162.177C1239.68 238.668 1310.98 258.092 1383.71 256.276C1420.05 255.369 1456.74 249.163 1493.06 242.149C1500.46 240.72 1507.85 239.257 1515.21 237.798C1544.01 232.096 1572.47 226.458 1600.31 223.131L1600.08 221.249C1572.17 224.587 1543.61 230.242 1514.81 235.947C1507.45 237.403 1500.08 238.863 1492.7 240.289C1456.39 247.3 1419.83 253.479 1383.67 254.382C1311.4 256.186 1240.7 236.93 1176.91 160.959C1160.85 141.831 1145.66 129.908 1130.91 123.7C1116.14 117.484 1101.88 117.025 1087.74 120.723C1073.64 124.414 1059.69 132.24 1045.5 142.551C1031.31 152.863 1016.83 165.702 1001.67 179.459C999.316 181.599 996.942 183.762 994.549 185.941C935.351 239.862 865.071 303.877 760.314 289.289C705.709 281.685 666.289 262.742 640.89 238.024C623.44 221.043 612.588 201.318 607.97 180.617C638.146 168.686 665.295 155.832 689.264 142.682C723.344 123.982 751.004 104.677 771.792 86.5604C792.565 68.457 806.531 51.494 813.15 37.4654C816.46 30.4508 817.966 24.0987 817.503 18.6685C817.036 13.1982 814.57 8.71221 810.066 5.51686C805.596 2.34628 799.187 0.492947 790.883 0.0856956ZM607.568 178.739C605.766 169.921 605.087 160.937 605.503 151.921C608.353 90.1552 662.669 26.5718 760.385 5.25082C772.584 2.58913 782.696 1.58108 790.79 1.97805C798.894 2.37547 804.902 4.17716 808.97 7.06221C813.002 9.9225 815.194 13.8927 815.615 18.8296C816.04 23.8065 814.666 29.8123 811.436 36.6569C804.977 50.3464 791.232 67.1062 770.547 85.1321C749.878 103.145 722.335 122.375 688.352 141.02C664.532 154.09 637.553 166.869 607.568 178.739Z" fill="white"/>
<circle cx="989.945" cy="191.358" r="7.57853" fill="white"/>
</svg>
